<?xml version="1.0" encoding="utf-8"?>
<!-- Generator: Adobe Illustrator 16.0.0, SVG Export Plug-In . SVG Version: 6.00 Build 0)  -->
<!DOCTYPE svg PUBLIC "-//W3C//DTD SVG 1.1//EN" "http://www.w3.org/Graphics/SVG/1.1/DTD/svg11.dtd">
<svg version="1.1" id="Layer_1" xmlns="http://www.w3.org/2000/svg" xmlns:xlink="http://www.w3.org/1999/xlink" x="0px" y="0px"
	 width="75px" height="75px" viewBox="0 0 75 75" enable-background="new 0 0 75 75" xml:space="preserve">
<g>
	<path fill="none" stroke="#F58220" stroke-width="7" stroke-linecap="round" stroke-linejoin="round" stroke-miterlimit="10" d="
		M70,65.357C70,67.921,67.922,70,65.357,70H9.643C7.079,70,5,67.921,5,65.357V9.643C5,7.079,7.079,5,9.643,5h55.714
		C67.922,5,70,7.079,70,9.643V65.357z"/>
	<path fill="#FFCC07" stroke="#FAA61A" stroke-width="5" stroke-linejoin="round" stroke-miterlimit="10" stroke-dasharray="3" d="
		M70,65.357C70,67.921,67.922,70,65.357,70H9.643C7.079,70,5,67.921,5,65.357V9.643C5,7.079,7.079,5,9.643,5h55.714
		C67.922,5,70,7.079,70,9.643V65.357z"/>
	<g>
		<path fill="#F58220" d="M38.494,45.536c-0.763,0.509-1.524,0.725-2.283,0.643c-1.636-0.172-2.378-0.959-2.23-2.36
			c0.173-1.635,2.41-4.351,6.711-8.145c4.299-3.795,6.574-6.891,6.827-9.284c0.277-2.627-0.433-4.961-2.136-7.002
			c-1.704-2.041-3.867-3.2-6.495-3.478c-2.92-0.309-5.521,0.404-7.799,2.14c-2.281,1.737-3.575,4.065-3.883,6.983
			c-0.224,2.103,0.251,4.013,1.429,5.732c1.175,1.718,2.783,2.687,4.828,2.903c1.634,0.173,3.229-0.529,4.785-2.106
			c1.555-1.577,2.421-3.211,2.6-4.906c0.169-1.576-0.021-2.851-0.567-3.824c-0.547-0.972-1.551-1.537-3.009-1.691
			c-1.109-0.117-2.133,0.202-3.069,0.959c-0.936,0.757-1.463,1.69-1.58,2.799c-0.149,1.401,0.535,2.182,2.054,2.343
			c0.232,0.024,0.637-0.153,1.208-0.537c0.571-0.382,1.109-0.724,1.614-1.024c0.653-0.048,0.937,0.336,0.851,1.153
			c-0.104,0.992-0.59,1.813-1.455,2.459c-0.865,0.646-1.825,0.914-2.876,0.802c-1.168-0.124-2.125-0.713-2.868-1.765
			c-0.746-1.054-1.049-2.222-0.912-3.507c0.209-1.984,1.022-3.524,2.436-4.613c1.415-1.091,3.144-1.526,5.188-1.31
			c1.809,0.192,3.208,0.931,4.193,2.215c0.983,1.286,1.383,2.834,1.191,4.643c-0.304,2.863-1.546,5.386-3.728,7.576
			c-2.18,2.19-4.671,3.135-7.474,2.839c-2.453-0.261-4.365-1.438-5.737-3.531c-1.373-2.092-1.925-4.396-1.659-6.907
			c0.408-3.854,1.918-6.97,4.533-9.35c2.613-2.379,5.847-3.366,9.701-2.958c3.386,0.359,6.215,1.796,8.487,4.309
			c2.271,2.514,3.233,5.435,2.881,8.764c-0.271,2.569-2.225,5.64-5.85,9.211c-3.625,3.572-5.566,6.583-5.827,9.037L38.494,45.536z
			 M35.928,61.384c-1.576-0.166-2.882-0.791-3.92-1.875c-1.036-1.085-1.471-2.415-1.304-3.993c0.167-1.577,0.851-2.875,2.052-3.897
			c1.201-1.026,2.59-1.455,4.167-1.287c1.576,0.167,2.844,0.876,3.804,2.132c0.96,1.251,1.352,2.695,1.179,4.328
			c-0.155,1.463-0.81,2.632-1.964,3.512C38.783,61.188,37.445,61.546,35.928,61.384z"/>
	</g>
</g>
</svg>
