<?xml version="1.0" encoding="utf-8"?>
<!-- Generator: Adobe Illustrator 16.0.0, SVG Export Plug-In . SVG Version: 6.00 Build 0)  -->
<!DOCTYPE svg PUBLIC "-//W3C//DTD SVG 1.1//EN" "http://www.w3.org/Graphics/SVG/1.1/DTD/svg11.dtd">
<svg version="1.1" id="Layer_1" xmlns="http://www.w3.org/2000/svg" xmlns:xlink="http://www.w3.org/1999/xlink" x="0px" y="0px"
	 width="75px" height="75px" viewBox="0 0 75 75" enable-background="new 0 0 75 75" xml:space="preserve">
<g>
	<path fill="#72BF44" d="M65.357,73.5H9.643c-4.49,0-8.143-3.652-8.143-8.143V9.643C1.5,5.153,5.153,1.5,9.643,1.5h55.714
		c4.49,0,8.143,3.653,8.143,8.143v55.714C73.5,69.848,69.848,73.5,65.357,73.5z M9.643,8.5C9.013,8.5,8.5,9.013,8.5,9.643v55.714
		c0,0.63,0.513,1.143,1.143,1.143h55.714c0.63,0,1.143-0.513,1.143-1.143V9.643c0-0.63-0.513-1.143-1.143-1.143H9.643z"/>
</g>
<path fill="#D7DF23" stroke="#A6CE39" stroke-width="5" stroke-linejoin="round" stroke-miterlimit="10" stroke-dasharray="3" d="
	M70,65.357C70,67.921,67.922,70,65.357,70H9.643C7.079,70,5,67.921,5,65.357V9.643C5,7.078,7.079,5,9.643,5h55.714
	C67.922,5,70,7.078,70,9.643V65.357z"/>
<g>
	<path fill="#FFFFFF" d="M48.758,21.514c0,0.563-0.338,0.9-0.9,0.9h-13.96v11.314H44.48c0.563,0,0.9,0.338,0.9,0.9v5.629
		c0,0.62-0.338,0.9-0.9,0.9H33.897v17.956c0,0.563-0.337,0.901-0.9,0.901h-5.854c-0.619,0-0.901-0.338-0.901-0.901V15.885
		c0-0.563,0.282-0.9,0.901-0.9h20.714c0.563,0,0.9,0.338,0.9,0.9V21.514z"/>
</g>
</svg>
